<svg style="opacity: .13" xmlns="http://www.w3.org/2000/svg" viewBox="0 0 233 464">
<defs><style>.ptsvg{fill:none;}</style></defs>
<g id="Capa_2" data-name="Capa 2">
<g id="Capa_1-2" data-name="Capa 1">
<path class="ptsvg"
d="M0,0H233V464H0ZM177.91,106.92a36.49,36.49,0,0,0,2.84-4.43c7.89-18.57,20.65-32.4,39.16-40.79,1.05-.47,2.37-1.76,2.39-2.7s-1.36-2.2-2.41-2.61c-18.71-7.37-31.48-20.64-39.33-39-.51-1.19-1.88-2-2.86-3-.95,1-2.26,1.92-2.78,3.14-7.72,18-20.33,31-38.44,38.63-1.18.51-2,1.89-3,2.87a19.66,19.66,0,0,0,3.07,2.86c3.82,2.35,8,4.25,11.6,6.83a76.69,76.69,0,0,1,26.47,33.13C175.29,103.4,176.45,104.71,177.91,106.92Zm0,116a36.87,36.87,0,0,0,2.85-4.42c7.88-18.57,20.64-32.41,39.15-40.79,1-.48,2.38-1.76,2.4-2.7s-1.36-2.21-2.41-2.62c-18.71-7.36-31.48-20.63-39.32-39-.51-1.19-1.89-2-2.86-3-1,1-2.27,1.91-2.79,3.13-7.71,18-20.32,31-38.43,38.64-1.19.5-2,1.89-3,2.86a20.16,20.16,0,0,0,3.06,2.87c3.82,2.35,7.95,4.24,11.6,6.82a76.62,76.62,0,0,1,26.47,33.13C175.29,219.4,176.45,220.7,177.9,222.92Zm-47.52,48c-1.56-1.14-2.46-2.12-3.57-2.56-18.71-7.35-31.46-20.66-39.28-39-.5-1.18-1.92-2-2.92-2.93-.86.92-2.08,1.68-2.54,2.77-7.69,18.19-20.38,31.36-38.67,39.05a5.3,5.3,0,0,0-2.72,3c-.17.55,1.44,2,2.51,2.54,18.31,8.68,31.06,22.54,38.86,41.14.47,1.1,1.67,1.9,2.52,2.84,1-1,2.49-1.71,3-2.88,7.94-18.74,20.74-32.75,39.45-41.16C128.08,273.2,128.9,272.13,130.38,270.89ZM85,99.23c1.39-2.3,2.2-3.64,3-5,3.84-6.4,7.2-13.16,11.64-19.12,7-9.4,16.54-15.82,27.07-20.82,1.08-.51,2.43-1.68,2.51-2.63s-1.3-2.25-2.33-2.66C108.28,41.58,95.25,28.54,87.49,10.1,87,9,85.5,7.44,85,7.61a5.42,5.42,0,0,0-3,2.74c-7.71,18-20.54,30.85-38.62,38.49-1.09.46-2.78,1.91-2.62,2.45a6.14,6.14,0,0,0,2.64,3.08c3.68,2.28,7.65,4.1,11.21,6.54A75.16,75.16,0,0,1,81.64,94.17C82.29,95.68,83.49,97,85,99.23ZM85,211.94a28,28,0,0,0,2.75-4.1c7.73-18.52,20.72-31.94,38.86-40.47,1.17-.55,1.93-2,2.87-3-.94-.85-1.73-2-2.83-2.48-18.43-7.43-31.32-20.38-39.07-38.61a5.27,5.27,0,0,0-3-2.68c-.56-.16-2,1.5-2.5,2.59q-11.46,27.1-38.5,38.61a5.54,5.54,0,0,0-2.8,2.94c-.18.51,1.43,2,2.5,2.56,18.17,8.8,31.24,22.37,38.93,41.1C82.6,209.49,83.66,210.33,85,211.94Zm138.55,74.67c-1.72-1.26-2.62-2.24-3.73-2.68-18.46-7.36-31.38-20.29-39.18-38.5-.51-1.2-1.88-2-2.86-3a18.71,18.71,0,0,0-2.85,3.07c-3,5.14-5.54,10.67-9,15.5-7.35,10.23-17.15,17.57-28.75,22.53-1.38.59-2.43,2-3.63,3a24,24,0,0,0,3.44,3.19c3.52,2.2,7.34,4,10.75,6.32a75.48,75.48,0,0,1,27,33.3c.59,1.39,2,2.44,3,3.65a20.85,20.85,0,0,0,3.12-3.42c1.41-2.45,2.37-5.15,3.73-7.63a74.13,74.13,0,0,1,34-32A46.2,46.2,0,0,0,223.51,286.61ZM84.71,334.1a57.59,57.59,0,0,0-3.23,5.36A70.15,70.15,0,0,1,45,376.14c-1.67.75-3,2.26-4.48,3.41,1.44,1.23,2.71,2.82,4.35,3.64,17.12,8.54,29.3,21.64,36.87,39.17.59,1.37,2,2.4,3,3.58a24.76,24.76,0,0,0,3.12-3.46c4-6.49,7.4-13.42,11.93-19.52,6.88-9.26,16.31-15.58,26.67-20.54,1.2-.57,2-1.95,3-2.95a20.16,20.16,0,0,0-3.22-2.74c-2.63-1.42-5.48-2.45-8.09-3.9-13.93-7.68-23.81-19-30.17-33.54A45.89,45.89,0,0,0,84.71,334.1Zm93,105.75a24.08,24.08,0,0,0,2.72-3.36c1.39-2.66,2.46-5.48,3.87-8.12,8-14.9,19.85-25.71,35.11-32.9,1.21-.57,2.06-1.91,3.07-2.9-1-.95-1.89-2.29-3.11-2.79-18-7.35-30.75-20-38.53-37.85-.59-1.35-2-2.34-3-3.51-1,1-2.35,1.83-2.87,3q-11.47,26.78-38.21,38.24c-1.23.53-2.13,1.82-3.19,2.76,1,1,1.77,2.39,2.95,3,18,8.77,30.93,22.25,38.59,40.79A22.75,22.75,0,0,0,177.68,439.85Zm-44.51-356c-4.9,11-12,17.85-21.65,22.21,4.71,3.66,9.16,6.38,12.64,10s6.1,8.3,9.76,13.46c4.2-10.86,11.35-17.9,20.87-23.11C144.84,101.62,138.15,94.58,133.17,83.85Zm-21.87,138c4.92,3.82,9.36,6.55,12.84,10.19s6.11,8.31,9.68,13.34c4.33-10.68,11.58-17.63,22.14-23.12-11.11-4.66-17.78-11.72-22.89-22.56C128.35,210.8,121.48,217.67,111.3,221.88ZM18.44,318c4.71,3.67,9.15,6.39,12.62,10s6.12,8.35,9.69,13.38c4.44-10.5,11.51-17.63,21-23.07-10-4.55-16.71-11.76-21.63-21.19C35.23,307,28.2,313.75,18.44,318ZM40.23,120.72c5-9.65,11.92-16.94,21.8-21.55-5-3.62-9.42-6.1-12.88-9.54s-5.89-7.78-9.32-12.46C35.2,87,28.39,94.12,17.37,98.6A47.5,47.5,0,0,1,40.23,120.72ZM18.68,211.77c10.12,4.75,16.32,12.76,21.9,23.51C45,223.86,52.34,217,62.89,211.56c-11-4.61-17.71-11.69-22.68-22.12C35.18,199.89,28.62,207.08,18.68,211.77ZM154.94,333.29a43.46,43.46,0,0,1-21.84-20.9c-4.72,10-11.88,16.54-22.65,21.32,11.08,5,17.63,12.77,22.56,22.37,3.51-4.9,6-9.31,9.37-12.81S150.27,336.93,154.94,333.29ZM40.29,449.91c5-10.69,11.71-18.19,21.54-23.27C51.71,422.15,45.08,414.85,40.17,404c-4.91,11.32-11.94,18-22.87,22.86C28.57,431.6,35.05,439.33,40.29,449.91Zm92.84-31.28c-4.87,9.64-11.9,16.35-22.54,21.05,10.76,5.13,17.59,12.52,22.86,22.27,4.55-10,11.77-17,21.35-22.37C144.8,435.15,138.22,428,133.13,418.63Z"/><path d="M177.91,106.92c-1.46-2.21-2.62-3.52-3.27-5a76.69,76.69,0,0,0-26.47-33.13c-3.65-2.58-7.78-4.48-11.6-6.83a19.66,19.66,0,0,1-3.07-2.86c1-1,1.8-2.36,3-2.87,18.11-7.63,30.72-20.66,38.44-38.63.52-1.22,1.83-2.1,2.78-3.14,1,1,2.35,1.81,2.86,3,7.85,18.33,20.62,31.6,39.33,39,1.05.41,2.43,1.74,2.41,2.61s-1.34,2.23-2.39,2.7c-18.51,8.39-31.27,22.22-39.16,40.79A36.49,36.49,0,0,1,177.91,106.92Z"/><path d="M177.9,222.92c-1.45-2.22-2.61-3.52-3.27-5a76.62,76.62,0,0,0-26.47-33.13c-3.65-2.58-7.78-4.47-11.6-6.82a20.16,20.16,0,0,1-3.06-2.87c1-1,1.8-2.36,3-2.86,18.11-7.64,30.72-20.66,38.43-38.64.52-1.22,1.84-2.09,2.79-3.13,1,1,2.35,1.82,2.86,3,7.84,18.33,20.61,31.6,39.32,39,1.05.41,2.43,1.75,2.41,2.62s-1.35,2.22-2.4,2.7c-18.51,8.38-31.27,22.22-39.15,40.79A36.87,36.87,0,0,1,177.9,222.92Z"/><path d="M130.38,270.89c-1.48,1.24-2.3,2.31-3.38,2.8-18.71,8.41-31.51,22.42-39.45,41.16-.49,1.17-2,1.93-3,2.88-.85-.94-2-1.74-2.52-2.84-7.8-18.6-20.55-32.46-38.86-41.14-1.07-.51-2.68-2-2.51-2.54a5.3,5.3,0,0,1,2.72-3c18.29-7.69,31-20.86,38.67-39.05.46-1.09,1.68-1.85,2.54-2.77,1,1,2.42,1.75,2.92,2.93,7.82,18.33,20.57,31.64,39.28,39C127.92,268.77,128.82,269.75,130.38,270.89Z"/><path d="M85,99.23c-1.53-2.27-2.73-3.55-3.38-5.06A75.16,75.16,0,0,0,54.58,60.91c-3.56-2.44-7.53-4.26-11.21-6.54a6.14,6.14,0,0,1-2.64-3.08c-.16-.54,1.53-2,2.62-2.45C61.43,41.2,74.26,28.39,82,10.35a5.42,5.42,0,0,1,3-2.74C85.5,7.44,87,9,87.49,10.1,95.25,28.54,108.28,41.58,126.91,49c1,.41,2.4,1.82,2.33,2.66s-1.43,2.12-2.51,2.63c-10.53,5-20.09,11.42-27.07,20.82-4.44,6-7.8,12.72-11.64,19.12C87.22,95.59,86.41,96.93,85,99.23Z"/><path d="M85,211.94c-1.3-1.61-2.36-2.45-2.81-3.55-7.69-18.73-20.76-32.3-38.93-41.1-1.07-.52-2.68-2-2.5-2.56a5.54,5.54,0,0,1,2.8-2.94Q70.58,150.24,82,123.18c.46-1.09,1.94-2.75,2.5-2.59a5.27,5.27,0,0,1,3,2.68c7.75,18.23,20.64,31.18,39.07,38.61,1.1.44,1.89,1.63,2.83,2.48-.94,1-1.7,2.46-2.87,3-18.14,8.53-31.13,21.95-38.86,40.47A28,28,0,0,1,85,211.94Z"/><path d="M223.51,286.61a46.2,46.2,0,0,1-5,3.3,74.13,74.13,0,0,0-34,32c-1.36,2.48-2.32,5.18-3.73,7.63A20.85,20.85,0,0,1,177.7,333c-1-1.21-2.39-2.26-3-3.65a75.48,75.48,0,0,0-27-33.3c-3.41-2.35-7.23-4.12-10.75-6.32a24,24,0,0,1-3.44-3.19c1.2-1,2.25-2.38,3.63-3,11.6-5,21.4-12.3,28.75-22.53,3.46-4.83,6-10.36,9-15.5a18.71,18.71,0,0,1,2.85-3.07c1,1,2.35,1.81,2.86,3,7.8,18.21,20.72,31.14,39.18,38.5C220.89,284.37,221.79,285.35,223.51,286.61Z"/><path d="M84.71,334.1A45.89,45.89,0,0,1,88,339.29c6.36,14.52,16.24,25.86,30.17,33.54,2.61,1.45,5.46,2.48,8.09,3.9a20.16,20.16,0,0,1,3.22,2.74c-1,1-1.8,2.38-3,2.95-10.36,5-19.79,11.28-26.67,20.54-4.53,6.1-7.93,13-11.93,19.52a24.76,24.76,0,0,1-3.12,3.46c-1-1.18-2.42-2.21-3-3.58C74.17,404.83,62,391.73,44.87,383.19c-1.64-.82-2.91-2.41-4.35-3.64,1.49-1.15,2.81-2.66,4.48-3.41a70.15,70.15,0,0,0,36.48-36.68A57.59,57.59,0,0,1,84.71,334.1Z"/><path d="M177.68,439.85a22.75,22.75,0,0,1-2.62-3.65c-7.66-18.54-20.61-32-38.59-40.79-1.18-.57-2-2-2.95-3,1.06-.94,2-2.23,3.19-2.76q26.79-11.47,38.21-38.24c.52-1.2,1.89-2,2.87-3,1,1.17,2.43,2.16,3,3.51,7.78,17.8,20.49,30.5,38.53,37.85,1.22.5,2.08,1.84,3.11,2.79-1,1-1.86,2.33-3.07,2.9-15.26,7.19-27.1,18-35.11,32.9-1.41,2.64-2.48,5.46-3.87,8.12A24.08,24.08,0,0,1,177.68,439.85Z"/><path d="M133.17,83.85c5,10.73,11.67,17.77,21.62,22.59-9.52,5.21-16.67,12.25-20.87,23.11-3.66-5.16-6.23-9.77-9.76-13.46s-7.93-6.37-12.64-10C121.2,101.7,128.27,94.86,133.17,83.85Z"/><path d="M111.3,221.88c10.18-4.21,17-11.08,21.77-22.15,5.11,10.84,11.78,17.9,22.89,22.56-10.56,5.49-17.81,12.44-22.14,23.12-3.57-5-6.15-9.64-9.68-13.34S116.22,225.7,111.3,221.88Z"/><path d="M18.44,318c9.76-4.2,16.79-10.91,21.7-20.84,4.92,9.43,11.61,16.64,21.63,21.19-9.51,5.44-16.58,12.57-21,23.07-3.57-5-6.15-9.66-9.69-13.38S23.15,321.62,18.44,318Z"/><path d="M40.23,120.72A47.5,47.5,0,0,0,17.37,98.6C28.39,94.12,35.2,87,39.83,77.17c3.43,4.68,5.89,9.06,9.32,12.46S57,95.55,62,99.17C52.15,103.78,45.26,111.07,40.23,120.72Z"/><path d="M18.68,211.77c9.94-4.69,16.5-11.88,21.53-22.33,5,10.43,11.63,17.51,22.68,22.12C52.34,217,45,223.86,40.58,235.28,35,224.53,28.8,216.52,18.68,211.77Z"/><path d="M154.94,333.29c-4.67,3.64-9.07,6.37-12.56,10s-5.86,7.91-9.37,12.81c-4.93-9.6-11.48-17.42-22.56-22.37,10.77-4.78,17.93-11.36,22.65-21.32A43.46,43.46,0,0,0,154.94,333.29Z"/><path d="M40.29,449.91c-5.24-10.58-11.72-18.31-23-23.1,10.93-4.83,18-11.54,22.87-22.86,4.91,10.9,11.54,18.2,21.66,22.69C52,431.72,45.32,439.22,40.29,449.91Z"/><path d="M133.13,418.63c5.09,9.33,11.67,16.52,21.67,20.95-9.58,5.35-16.8,12.33-21.35,22.37-5.27-9.75-12.1-17.14-22.86-22.27C121.23,435,128.26,428.27,133.13,418.63Z"/></g></g></svg>
